<mxfile host="app.diagrams.net" modified="2021-06-12T05:24:31.499Z" agent="5.0 (Windows)" etag="-hmHL065-T8sE_cIfhju" version="14.7.7" type="github">
  <diagram id="y6vnvWq1LLHN1AX9GfiJ" name="Page-1">
    <mxGraphModel dx="868" dy="423" grid="1" gridSize="10" guides="1" tooltips="1" connect="1" arrows="1" fold="1" page="1" pageScale="1" pageWidth="850" pageHeight="1100" math="0" shadow="0">
      <root>
        <mxCell id="0" />
        <mxCell id="1" parent="0" />
        <mxCell id="gCib6PayQBfpowBPioGF-1" value="" style="rounded=0;whiteSpace=wrap;html=1;" vertex="1" parent="1">
          <mxGeometry x="170" y="30" width="540" height="370" as="geometry" />
        </mxCell>
        <mxCell id="gCib6PayQBfpowBPioGF-2" value="" style="rounded=1;whiteSpace=wrap;html=1;" vertex="1" parent="1">
          <mxGeometry x="290" y="100" width="380" height="240" as="geometry" />
        </mxCell>
        <mxCell id="gCib6PayQBfpowBPioGF-5" value="DATA CENTER" style="text;html=1;strokeColor=none;fillColor=none;align=center;verticalAlign=middle;whiteSpace=wrap;rounded=0;fontStyle=1" vertex="1" parent="1">
          <mxGeometry x="180" y="30" width="100" height="50" as="geometry" />
        </mxCell>
        <mxCell id="gCib6PayQBfpowBPioGF-7" value="" style="ellipse;shape=cloud;whiteSpace=wrap;html=1;" vertex="1" parent="1">
          <mxGeometry x="280" y="90" width="360" height="250" as="geometry" />
        </mxCell>
        <mxCell id="gCib6PayQBfpowBPioGF-8" value="AD" style="text;html=1;strokeColor=none;fillColor=none;align=center;verticalAlign=middle;whiteSpace=wrap;rounded=0;" vertex="1" parent="1">
          <mxGeometry x="310" y="110" width="40" height="20" as="geometry" />
        </mxCell>
        <mxCell id="gCib6PayQBfpowBPioGF-9" value="VCN" style="text;html=1;strokeColor=none;fillColor=none;align=center;verticalAlign=middle;whiteSpace=wrap;rounded=0;" vertex="1" parent="1">
          <mxGeometry x="330" y="155" width="40" height="20" as="geometry" />
        </mxCell>
        <mxCell id="gCib6PayQBfpowBPioGF-12" value="" style="points=[[0.25,0,0],[0.5,0,0],[0.75,0,0],[1,0.25,0],[1,0.5,0],[1,0.75,0],[0.75,1,0],[0.5,1,0],[0.25,1,0],[0,0.75,0],[0,0.5,0],[0,0.25,0]];rounded=1;dashed=1;dashPattern=5 2 1 2;labelPosition=center;verticalLabelPosition=top;align=right;verticalAlign=bottom;fontSize=8;" vertex="1" parent="1">
          <mxGeometry x="380" y="150" width="190" height="140" as="geometry" />
        </mxCell>
        <mxCell id="gCib6PayQBfpowBPioGF-13" value="SUBNET" style="text;html=1;strokeColor=none;fillColor=none;align=center;verticalAlign=middle;whiteSpace=wrap;rounded=0;fontStyle=1" vertex="1" parent="1">
          <mxGeometry x="530" y="155" width="40" height="20" as="geometry" />
        </mxCell>
        <mxCell id="gCib6PayQBfpowBPioGF-16" style="edgeStyle=orthogonalEdgeStyle;rounded=0;orthogonalLoop=1;jettySize=auto;html=1;exitX=0.5;exitY=1;exitDx=0;exitDy=0;exitPerimeter=0;entryX=0.26;entryY=-0.02;entryDx=0;entryDy=0;entryPerimeter=0;" edge="1" parent="1" source="gCib6PayQBfpowBPioGF-14" target="gCib6PayQBfpowBPioGF-15">
          <mxGeometry relative="1" as="geometry" />
        </mxCell>
        <mxCell id="gCib6PayQBfpowBPioGF-14" value="" style="verticalLabelPosition=bottom;verticalAlign=top;html=1;shape=card;whiteSpace=wrap;size=20;arcSize=12;fillColor=#ffe6cc;strokeColor=#d79b00;" vertex="1" parent="1">
          <mxGeometry x="415" y="180" width="35" height="10" as="geometry" />
        </mxCell>
        <mxCell id="gCib6PayQBfpowBPioGF-15" value="INSTANCE" style="shape=cube;whiteSpace=wrap;html=1;boundedLbl=1;backgroundOutline=1;darkOpacity=0.05;darkOpacity2=0.1;fontStyle=1" vertex="1" parent="1">
          <mxGeometry x="410" y="200" width="100" height="50" as="geometry" />
        </mxCell>
        <mxCell id="gCib6PayQBfpowBPioGF-30" value="Routetable &#xa;&#xa;with rules " style="swimlane;childLayout=stackLayout;horizontal=1;startSize=30;horizontalStack=0;rounded=1;fontSize=14;fontStyle=1;strokeWidth=2;resizeParent=0;resizeLast=1;shadow=0;dashed=0;align=center;" vertex="1" parent="1">
          <mxGeometry x="530" y="250" width="60" height="30" as="geometry" />
        </mxCell>
        <mxCell id="gCib6PayQBfpowBPioGF-31" value="+Attribute1&#xa;+Attribute2&#xa;+Attribute3" style="align=left;strokeColor=none;fillColor=none;spacingLeft=4;fontSize=12;verticalAlign=top;resizable=0;rotatable=0;part=1;" vertex="1" parent="gCib6PayQBfpowBPioGF-30">
          <mxGeometry y="30" width="60" as="geometry" />
        </mxCell>
      </root>
    </mxGraphModel>
  </diagram>
</mxfile>
